<svg class="railroad-diagram" height="71" viewBox="0 0 379.0 71" width="379.0" xmlns="http://www.w3.org/2000/svg" xmlns:xlink="http://www.w3.org/1999/xlink">
<g transform="translate(.5 .5)">
<g>
<path d="M20 30v20m10 -20v20m-10 -10h20" /></g><path d="M40 40h10" /><g class="terminal ">
<path d="M50 40h0.0" /><path d="M104.0 40h0.0" /><rect height="22" rx="10" ry="10" width="54" x="50" y="29"></rect><text x="77" y="44">load</text></g><path d="M104.0 40h10" /><path d="M114.0 40h10" /><g class="non-terminal ">
<path d="M124.0 40h0.0" /><path d="M195.0 40h0.0" /><rect height="22" width="71" x="124" y="29"></rect><text x="159.5" y="44">STRING</text><title>file path</title></g><path d="M195.0 40h10" /><g>
<path d="M205.0 40h0.0" /><path d="M339.0 40h0.0" /><path d="M205.0 40a10 10 0 0 0 10 -10v0a10 10 0 0 1 10 -10" /><g>
<path d="M225.0 20h94.0" /></g><path d="M319.0 20a10 10 0 0 1 10 10v0a10 10 0 0 0 10 10" /><path d="M205.0 40h20" /><g>
<path d="M225.0 40h0.0" /><path d="M319.0 40h0.0" /><g class="terminal ">
<path d="M225.0 40h0.0" /><path d="M262.0 40h0.0" /><rect height="22" rx="10" ry="10" width="37" x="225" y="29"></rect><text x="243.5" y="44">as</text></g><path d="M262.0 40h10" /><path d="M272.0 40h10" /><g class="non-terminal ">
<path d="M282.0 40h0.0" /><path d="M319.0 40h0.0" /><rect height="22" width="37" x="282" y="29"></rect><text x="300.5" y="44">ID</text><title>namespace alias</title></g></g><path d="M319.0 40h20" /></g><path d="M 339.0 40 h 20 m -10 -10 v 20 m 10 -20 v 20"></path></g><style>/* <![CDATA[ */
	svg.railroad-diagram {
		background-color:hsl(30,20%,95%);
	}
	svg.railroad-diagram path {
		stroke-width:3;
		stroke:black;
		fill:rgba(0,0,0,0);
	}
	svg.railroad-diagram text {
		font:bold 14px monospace;
		text-anchor:middle;
	}
	svg.railroad-diagram text.label{
		text-anchor:start;
	}
	svg.railroad-diagram text.comment{
		font:italic 12px monospace;
	}
	svg.railroad-diagram rect{
		stroke-width:3;
		stroke:black;
		fill:hsl(120,100%,90%);
	}
	svg.railroad-diagram rect.group-box {
		stroke: gray;
		stroke-dasharray: 10 5;
		fill: none;
	}

/* ]]> */
</style></svg>