<svg class="railroad-diagram" height="71" viewBox="0 0 393.5 71" width="393.5" xmlns="http://www.w3.org/2000/svg" xmlns:xlink="http://www.w3.org/1999/xlink">
<g transform="translate(.5 .5)">
<g>
<path d="M20 21v20m10 -20v20m-10 -10h20" /></g><path d="M40 31h10" /><g class="terminal ">
<path d="M50 31h0.0" /><path d="M78.5 31h0.0" /><rect height="22" rx="10" ry="10" width="28.5" x="50" y="20"></rect><text x="64.25" y="35">{</text></g><path d="M78.5 31h10" /><path d="M88.5 31h10" /><g>
<path d="M98.5 31h0.0" /><path d="M295.0 31h0.0" /><path d="M98.5 31h10" /><g>
<path d="M108.5 31h0.0" /><path d="M285.0 31h0.0" /><g class="non-terminal ">
<path d="M108.5 31h0.0" /><path d="M145.5 31h0.0" /><rect height="22" width="37" x="108.5" y="20"></rect><text x="127" y="35">ID</text><title>key</title></g><path d="M145.5 31h10" /><path d="M155.5 31h10" /><g class="terminal ">
<path d="M165.5 31h0.0" /><path d="M194.0 31h0.0" /><rect height="22" rx="10" ry="10" width="28.5" x="165.5" y="20"></rect><text x="179.75" y="35">:</text></g><path d="M194.0 31h10" /><path d="M204.0 31h10" /><g class="non-terminal ">
<path d="M214.0 31h0.0" /><path d="M285.0 31h0.0" /><rect height="22" width="71" x="214" y="20"></rect><text x="249.5" y="35">STRING</text><title>value</title></g></g><path d="M285.0 31h10" /><path d="M108.5 31a10 10 0 0 0 -10 10v0a10 10 0 0 0 10 10" /><g>
<path d="M108.5 51h176.5" /></g><path d="M285.0 51a10 10 0 0 0 10 -10v0a10 10 0 0 0 -10 -10" /></g><path d="M295.0 31h10" /><path d="M305.0 31h10" /><g class="terminal ">
<path d="M315.0 31h0.0" /><path d="M343.5 31h0.0" /><rect height="22" rx="10" ry="10" width="28.5" x="315" y="20"></rect><text x="329.25" y="35">}</text></g><path d="M343.5 31h10" /><path d="M 353.5 31 h 20 m -10 -10 v 20 m 10 -20 v 20"></path></g><style>/* <![CDATA[ */
	svg.railroad-diagram {
		background-color:hsl(30,20%,95%);
	}
	svg.railroad-diagram path {
		stroke-width:3;
		stroke:black;
		fill:rgba(0,0,0,0);
	}
	svg.railroad-diagram text {
		font:bold 14px monospace;
		text-anchor:middle;
	}
	svg.railroad-diagram text.label{
		text-anchor:start;
	}
	svg.railroad-diagram text.comment{
		font:italic 12px monospace;
	}
	svg.railroad-diagram rect{
		stroke-width:3;
		stroke:black;
		fill:hsl(120,100%,90%);
	}
	svg.railroad-diagram rect.group-box {
		stroke: gray;
		stroke-dasharray: 10 5;
		fill: none;
	}

/* ]]> */
</style></svg>