<svg class="railroad-diagram" height="80" viewBox="0 0 452.5 80" width="452.5" xmlns="http://www.w3.org/2000/svg" xmlns:xlink="http://www.w3.org/1999/xlink">
<g transform="translate(.5 .5)">
<g>
<path d="M20 30v20m10 -20v20m-10 -10h20" /></g><path d="M40 40h10" /><g class="non-terminal ">
<path d="M50 40h0.0" /><path d="M172.0 40h0.0" /><rect height="22" width="122" x="50" y="29"></rect><text x="111" y="44">qualified_id</text></g><path d="M172.0 40h10" /><g>
<path d="M182.0 40h0.0" /><path d="M412.5 40h0.0" /><path d="M182.0 40a10 10 0 0 0 10 -10v0a10 10 0 0 1 10 -10" /><g>
<path d="M202.0 20h190.5" /></g><path d="M392.5 20a10 10 0 0 1 10 10v0a10 10 0 0 0 10 10" /><path d="M182.0 40h20" /><g>
<path d="M202.0 40h0.0" /><path d="M392.5 40h0.0" /><path d="M202.0 40h10" /><g>
<path d="M212.0 40h0.0" /><path d="M382.5 40h0.0" /><g class="terminal ">
<path d="M212.0 40h0.0" /><path d="M240.5 40h0.0" /><rect height="22" rx="10" ry="10" width="28.5" x="212" y="29"></rect><text x="226.25" y="44">,</text></g><path d="M240.5 40h10" /><path d="M250.5 40h10" /><g class="non-terminal ">
<path d="M260.5 40h0.0" /><path d="M382.5 40h0.0" /><rect height="22" width="122" x="260.5" y="29"></rect><text x="321.5" y="44">qualified_id</text></g></g><path d="M382.5 40h10" /><path d="M212.0 40a10 10 0 0 0 -10 10v0a10 10 0 0 0 10 10" /><g>
<path d="M212.0 60h170.5" /></g><path d="M382.5 60a10 10 0 0 0 10 -10v0a10 10 0 0 0 -10 -10" /></g><path d="M392.5 40h20" /></g><path d="M 412.5 40 h 20 m -10 -10 v 20 m 10 -20 v 20"></path></g><style>/* <![CDATA[ */
	svg.railroad-diagram {
		background-color:hsl(30,20%,95%);
	}
	svg.railroad-diagram path {
		stroke-width:3;
		stroke:black;
		fill:rgba(0,0,0,0);
	}
	svg.railroad-diagram text {
		font:bold 14px monospace;
		text-anchor:middle;
	}
	svg.railroad-diagram text.label{
		text-anchor:start;
	}
	svg.railroad-diagram text.comment{
		font:italic 12px monospace;
	}
	svg.railroad-diagram rect{
		stroke-width:3;
		stroke:black;
		fill:hsl(120,100%,90%);
	}
	svg.railroad-diagram rect.group-box {
		stroke: gray;
		stroke-dasharray: 10 5;
		fill: none;
	}

/* ]]> */
</style></svg>