<svg class="railroad-diagram" height="62" viewBox="0 0 529.0 62" width="529.0" xmlns="http://www.w3.org/2000/svg" xmlns:xlink="http://www.w3.org/1999/xlink">
<g transform="translate(.5 .5)">
<g>
<path d="M20 21v20m10 -20v20m-10 -10h20" /></g><path d="M40 31h10" /><g class="terminal ">
<path d="M50 31h0.0" /><path d="M189.0 31h0.0" /><rect height="22" rx="10" ry="10" width="139" x="50" y="20"></rect><text x="119.5" y="35">sub-conclusion</text></g><path d="M189.0 31h10" /><path d="M199.0 31h10" /><g class="non-terminal ">
<path d="M209.0 31h0.0" /><path d="M331.0 31h0.0" /><rect height="22" width="122" x="209" y="20"></rect><text x="270" y="35">qualified_id</text><title>id</title></g><path d="M331.0 31h10" /><path d="M341.0 31h10" /><g class="terminal ">
<path d="M351.0 31h0.0" /><path d="M388.0 31h0.0" /><rect height="22" rx="10" ry="10" width="37" x="351" y="20"></rect><text x="369.5" y="35">is</text></g><path d="M388.0 31h10" /><path d="M398.0 31h10" /><g class="non-terminal ">
<path d="M408.0 31h0.0" /><path d="M479.0 31h0.0" /><rect height="22" width="71" x="408" y="20"></rect><text x="443.5" y="35">STRING</text><title>label</title></g><path d="M479.0 31h10" /><path d="M 489.0 31 h 20 m -10 -10 v 20 m 10 -20 v 20"></path></g><style>/* <![CDATA[ */
	svg.railroad-diagram {
		background-color:hsl(30,20%,95%);
	}
	svg.railroad-diagram path {
		stroke-width:3;
		stroke:black;
		fill:rgba(0,0,0,0);
	}
	svg.railroad-diagram text {
		font:bold 14px monospace;
		text-anchor:middle;
	}
	svg.railroad-diagram text.label{
		text-anchor:start;
	}
	svg.railroad-diagram text.comment{
		font:italic 12px monospace;
	}
	svg.railroad-diagram rect{
		stroke-width:3;
		stroke:black;
		fill:hsl(120,100%,90%);
	}
	svg.railroad-diagram rect.group-box {
		stroke: gray;
		stroke-dasharray: 10 5;
		fill: none;
	}

/* ]]> */
</style></svg>