<svg class="railroad-diagram" height="220" viewBox="0 0 299.0 220" width="299.0" xmlns="http://www.w3.org/2000/svg" xmlns:xlink="http://www.w3.org/1999/xlink">
<g transform="translate(.5 .5)">
<g>
<path d="M20 21v20m10 -20v20m-10 -10h20" /></g><path d="M40 31h10" /><g>
<path d="M50 31h0.0" /><path d="M249.0 31h0.0" /><path d="M50.0 31h10" /><g>
<path d="M60.0 31h0.0" /><path d="M239.0 31h0.0" /><path d="M60.0 31h20" /><g class="non-terminal ">
<path d="M80.0 31h17.0" /><path d="M202.0 31h17.0" /><rect height="22" width="105" x="97" y="20"></rect><text x="149.5" y="35">conclusion</text></g><path d="M219.0 31h20" /><path d="M60.0 31a10 10 0 0 1 10 10v10a10 10 0 0 0 10 10" /><g class="non-terminal ">
<path d="M80.0 61h0.0" /><path d="M219.0 61h0.0" /><rect height="22" width="139" x="80" y="50"></rect><text x="149.5" y="65">sub-conclusion</text></g><path d="M219.0 61a10 10 0 0 0 10 -10v-10a10 10 0 0 1 10 -10" /><path d="M60.0 31a10 10 0 0 1 10 10v40a10 10 0 0 0 10 10" /><g class="non-terminal ">
<path d="M80.0 91h25.5" /><path d="M193.5 91h25.5" /><rect height="22" width="88" x="105.5" y="80"></rect><text x="149.5" y="95">strategy</text></g><path d="M219.0 91a10 10 0 0 0 10 -10v-40a10 10 0 0 1 10 -10" /><path d="M60.0 31a10 10 0 0 1 10 10v70a10 10 0 0 0 10 10" /><g class="non-terminal ">
<path d="M80.0 121h25.5" /><path d="M193.5 121h25.5" /><rect height="22" width="88" x="105.5" y="110"></rect><text x="149.5" y="125">evidence</text></g><path d="M219.0 121a10 10 0 0 0 10 -10v-70a10 10 0 0 1 10 -10" /><path d="M60.0 31a10 10 0 0 1 10 10v100a10 10 0 0 0 10 10" /><g class="non-terminal ">
<path d="M80.0 151h25.5" /><path d="M193.5 151h25.5" /><rect height="22" width="88" x="105.5" y="140"></rect><text x="149.5" y="155">relation</text></g><path d="M219.0 151a10 10 0 0 0 10 -10v-100a10 10 0 0 1 10 -10" /><path d="M60.0 31a10 10 0 0 1 10 10v130a10 10 0 0 0 10 10" /><g class="non-terminal ">
<path d="M80.0 181h25.5" /><path d="M193.5 181h25.5" /><rect height="22" width="88" x="105.5" y="170"></rect><text x="149.5" y="185">@support</text></g><path d="M219.0 181a10 10 0 0 0 10 -10v-130a10 10 0 0 1 10 -10" /></g><path d="M239.0 31h10" /><path d="M60.0 31a10 10 0 0 0 -10 10v149a10 10 0 0 0 10 10" /><g>
<path d="M60.0 200h179.0" /></g><path d="M239.0 200a10 10 0 0 0 10 -10v-149a10 10 0 0 0 -10 -10" /></g><path d="M249.0 31h10" /><path d="M 259.0 31 h 20 m -10 -10 v 20 m 10 -20 v 20"></path></g><style>/* <![CDATA[ */
	svg.railroad-diagram {
		background-color:hsl(30,20%,95%);
	}
	svg.railroad-diagram path {
		stroke-width:3;
		stroke:black;
		fill:rgba(0,0,0,0);
	}
	svg.railroad-diagram text {
		font:bold 14px monospace;
		text-anchor:middle;
	}
	svg.railroad-diagram text.label{
		text-anchor:start;
	}
	svg.railroad-diagram text.comment{
		font:italic 12px monospace;
	}
	svg.railroad-diagram rect{
		stroke-width:3;
		stroke:black;
		fill:hsl(120,100%,90%);
	}
	svg.railroad-diagram rect.group-box {
		stroke: gray;
		stroke-dasharray: 10 5;
		fill: none;
	}

/* ]]> */
</style></svg>