<svg class="railroad-diagram" height="62" viewBox="0 0 495.0 62" width="495.0" xmlns="http://www.w3.org/2000/svg" xmlns:xlink="http://www.w3.org/1999/xlink">
<g transform="translate(.5 .5)">
<g>
<path d="M20 21v20m10 -20v20m-10 -10h20" /></g><path d="M40 31h10" /><g class="terminal ">
<path d="M50 31h0.0" /><path d="M155.0 31h0.0" /><rect height="22" rx="10" ry="10" width="105" x="50" y="20"></rect><text x="102.5" y="35">conclusion</text></g><path d="M155.0 31h10" /><path d="M165.0 31h10" /><g class="non-terminal ">
<path d="M175.0 31h0.0" /><path d="M297.0 31h0.0" /><rect height="22" width="122" x="175" y="20"></rect><text x="236" y="35">qualified_id</text><title>id</title></g><path d="M297.0 31h10" /><path d="M307.0 31h10" /><g class="terminal ">
<path d="M317.0 31h0.0" /><path d="M354.0 31h0.0" /><rect height="22" rx="10" ry="10" width="37" x="317" y="20"></rect><text x="335.5" y="35">is</text></g><path d="M354.0 31h10" /><path d="M364.0 31h10" /><g class="non-terminal ">
<path d="M374.0 31h0.0" /><path d="M445.0 31h0.0" /><rect height="22" width="71" x="374" y="20"></rect><text x="409.5" y="35">STRING</text><title>label</title></g><path d="M445.0 31h10" /><path d="M 455.0 31 h 20 m -10 -10 v 20 m 10 -20 v 20"></path></g><style>/* <![CDATA[ */
	svg.railroad-diagram {
		background-color:hsl(30,20%,95%);
	}
	svg.railroad-diagram path {
		stroke-width:3;
		stroke:black;
		fill:rgba(0,0,0,0);
	}
	svg.railroad-diagram text {
		font:bold 14px monospace;
		text-anchor:middle;
	}
	svg.railroad-diagram text.label{
		text-anchor:start;
	}
	svg.railroad-diagram text.comment{
		font:italic 12px monospace;
	}
	svg.railroad-diagram rect{
		stroke-width:3;
		stroke:black;
		fill:hsl(120,100%,90%);
	}
	svg.railroad-diagram rect.group-box {
		stroke: gray;
		stroke-dasharray: 10 5;
		fill: none;
	}

/* ]]> */
</style></svg>